<?xml version="1.0" encoding="utf-8"?>
<!-- Generator: Adobe Illustrator 21.1.0, SVG Export Plug-In . SVG Version: 6.00 Build 0)  -->
<svg version="1.1" id="Layer_1" xmlns="http://www.w3.org/2000/svg" xmlns:xlink="http://www.w3.org/1999/xlink" x="0px" y="0px"
	 viewBox="0 0 32 32" style="enable-background:new 0 0 32 32;" xml:space="preserve">
<style type="text/css">
	.st0{fill:#FFFFFF;}
</style>
<path class="st0" d="M22,27H2c-0.6,0-1-0.4-1-1V6c0-0.6,0.4-1,1-1h20c0.6,0,1,0.4,1,1v4.4l6.6-3.3c0.3-0.2,0.7-0.1,1,0
	C30.8,7.3,31,7.7,31,8v16c0,0.3-0.2,0.7-0.5,0.9c-0.3,0.2-0.7,0.2-1,0L23,21.6V26C23,26.6,22.6,27,22,27z"/>
</svg>
